<svg width="44" height="44" viewBox="0 0 44 44" fill="none" xmlns="http://www.w3.org/2000/svg">
<path d="M20.4864 39.2778C29.9874 39.2778 37.6895 31.5758 37.6895 22.0749C37.6895 12.5741 29.9874 4.87207 20.4864 4.87207C10.9853 4.87207 3.2832 12.5741 3.2832 22.0749C3.2832 31.5758 10.9853 39.2778 20.4864 39.2778Z" fill="#0B3D91"/>
<path d="M19.4707 8.36814C19.5772 8.36814 19.6636 8.28179 19.6636 8.17528C19.6636 8.06877 19.5772 7.98242 19.4707 7.98242C19.3642 7.98242 19.2778 8.06877 19.2778 8.17528C19.2778 8.28179 19.3642 8.36814 19.4707 8.36814Z" fill="white"/>
<path d="M21.4512 8.62595C21.5577 8.62595 21.644 8.5396 21.644 8.43309C21.644 8.32658 21.5577 8.24023 21.4512 8.24023C21.3446 8.24023 21.2583 8.32658 21.2583 8.43309C21.2583 8.5396 21.3446 8.62595 21.4512 8.62595Z" fill="white"/>
<path d="M24.0478 12.123C24.1544 12.123 24.2407 12.0367 24.2407 11.9302C24.2407 11.8237 24.1544 11.7373 24.0478 11.7373C23.9413 11.7373 23.855 11.8237 23.855 11.9302C23.855 12.0367 23.9413 12.123 24.0478 12.123Z" fill="white"/>
<path d="M9.80224 30.124C9.90875 30.124 9.9951 30.0377 9.9951 29.9311C9.9951 29.8246 9.90875 29.7383 9.80224 29.7383C9.69572 29.7383 9.60938 29.8246 9.60938 29.9311C9.60938 30.0377 9.69572 30.124 9.80224 30.124Z" fill="white"/>
<path d="M10.3032 31.666C10.4097 31.666 10.4961 31.5796 10.4961 31.4731C10.4961 31.3666 10.4097 31.2803 10.3032 31.2803C10.1967 31.2803 10.1104 31.3666 10.1104 31.4731C10.1104 31.5796 10.1967 31.666 10.3032 31.666Z" fill="white"/>
<path d="M7.91201 30.3064C7.99178 30.3064 8.05644 30.2418 8.05644 30.162C8.05644 30.0822 7.99178 30.0176 7.91201 30.0176C7.83224 30.0176 7.76758 30.0822 7.76758 30.162C7.76758 30.2418 7.83224 30.3064 7.91201 30.3064Z" fill="white"/>
<path d="M15.7547 33.3376C15.8347 33.3376 15.8996 33.2727 15.8996 33.1927C15.8996 33.1127 15.8347 33.0479 15.7547 33.0479C15.6747 33.0479 15.6099 33.1127 15.6099 33.1927C15.6099 33.2727 15.6747 33.3376 15.7547 33.3376Z" fill="white"/>
<path d="M28.0565 30.782C28.1363 30.782 28.201 30.7174 28.201 30.6376C28.201 30.5578 28.1363 30.4932 28.0565 30.4932C27.9768 30.4932 27.9121 30.5578 27.9121 30.6376C27.9121 30.7174 27.9768 30.782 28.0565 30.782Z" fill="white"/>
<path d="M31.6307 26.8991C31.7107 26.8991 31.7756 26.8342 31.7756 26.7542C31.7756 26.6742 31.7107 26.6094 31.6307 26.6094C31.5507 26.6094 31.4858 26.6742 31.4858 26.7542C31.4858 26.8342 31.5507 26.8991 31.6307 26.8991Z" fill="white"/>
<path d="M14.1093 13.2019C14.189 13.2019 14.2537 13.1373 14.2537 13.0575C14.2537 12.9777 14.189 12.9131 14.1093 12.9131C14.0295 12.9131 13.9648 12.9777 13.9648 13.0575C13.9648 13.1373 14.0295 13.2019 14.1093 13.2019Z" fill="white"/>
<path d="M18.0434 10.3142C18.1231 10.3142 18.1878 10.2496 18.1878 10.1698C18.1878 10.0901 18.1231 10.0254 18.0434 10.0254C17.9636 10.0254 17.8989 10.0901 17.8989 10.1698C17.8989 10.2496 17.9636 10.3142 18.0434 10.3142Z" fill="white"/>
<path d="M17.6166 10.0301C17.6964 10.0301 17.761 9.96541 17.761 9.88564C17.761 9.80587 17.6964 9.74121 17.6166 9.74121C17.5368 9.74121 17.4722 9.80587 17.4722 9.88564C17.4722 9.96541 17.5368 10.0301 17.6166 10.0301Z" fill="white"/>
<path d="M17.2304 9.74784C17.3101 9.74784 17.3748 9.68318 17.3748 9.60341C17.3748 9.52365 17.3101 9.45898 17.2304 9.45898C17.1506 9.45898 17.0859 9.52365 17.0859 9.60341C17.0859 9.68318 17.1506 9.74784 17.2304 9.74784Z" fill="white"/>
<path d="M14.7265 13.949C14.8062 13.949 14.8709 13.8844 14.8709 13.8046C14.8709 13.7248 14.8062 13.6602 14.7265 13.6602C14.6467 13.6602 14.582 13.7248 14.582 13.8046C14.582 13.8844 14.6467 13.949 14.7265 13.949Z" fill="white"/>
<path d="M20.5219 6.43046C20.6016 6.43046 20.6663 6.3658 20.6663 6.28603C20.6663 6.20626 20.6016 6.1416 20.5219 6.1416C20.4421 6.1416 20.3774 6.20626 20.3774 6.28603C20.3774 6.3658 20.4421 6.43046 20.5219 6.43046Z" fill="white"/>
<path d="M21.4735 10.5965C21.5533 10.5965 21.618 10.5318 21.618 10.452C21.618 10.3723 21.5533 10.3076 21.4735 10.3076C21.3938 10.3076 21.3291 10.3723 21.3291 10.452C21.3291 10.5318 21.3938 10.5965 21.4735 10.5965Z" fill="white"/>
<path d="M19.9721 9.783C20.0518 9.783 20.1165 9.71833 20.1165 9.63857C20.1165 9.5588 20.0518 9.49414 19.9721 9.49414C19.8923 9.49414 19.8276 9.5588 19.8276 9.63857C19.8276 9.71833 19.8923 9.783 19.9721 9.783Z" fill="white"/>
<path d="M17.4008 10.8885C17.4805 10.8885 17.5452 10.8238 17.5452 10.744C17.5452 10.6643 17.4805 10.5996 17.4008 10.5996C17.321 10.5996 17.2563 10.6643 17.2563 10.744C17.2563 10.8238 17.321 10.8885 17.4008 10.8885Z" fill="white"/>
<path d="M28.7411 34.5975C28.8209 34.5975 28.8855 34.5328 28.8855 34.453C28.8855 34.3733 28.8209 34.3086 28.7411 34.3086C28.6613 34.3086 28.5967 34.3733 28.5967 34.453C28.5967 34.5328 28.6613 34.5975 28.7411 34.5975Z" fill="white"/>
<path d="M9.55746 31.0524C9.63746 31.0524 9.70232 30.9876 9.70232 30.9076C9.70232 30.8275 9.63746 30.7627 9.55746 30.7627C9.47745 30.7627 9.4126 30.8275 9.4126 30.9076C9.4126 30.9876 9.47745 31.0524 9.55746 31.0524Z" fill="white"/>
<path d="M19.6121 32.9167C19.6921 32.9167 19.757 32.8518 19.757 32.7718C19.757 32.6918 19.6921 32.627 19.6121 32.627C19.5321 32.627 19.4673 32.6918 19.4673 32.7718C19.4673 32.8518 19.5321 32.9167 19.6121 32.9167Z" fill="white"/>
<path d="M12.5501 30.9362C12.6301 30.9362 12.695 30.8713 12.695 30.7913C12.695 30.7113 12.6301 30.6465 12.5501 30.6465C12.4701 30.6465 12.4053 30.7113 12.4053 30.7913C12.4053 30.8713 12.4701 30.9362 12.5501 30.9362Z" fill="white"/>
<path d="M13.8006 32.9772C13.8806 32.9772 13.9455 32.9124 13.9455 32.8324C13.9455 32.7524 13.8806 32.6875 13.8006 32.6875C13.7206 32.6875 13.6558 32.7524 13.6558 32.8324C13.6558 32.9124 13.7206 32.9772 13.8006 32.9772Z" fill="white"/>
<path d="M23.0062 31.6922C23.086 31.6922 23.1507 31.6275 23.1507 31.5477C23.1507 31.468 23.086 31.4033 23.0062 31.4033C22.9265 31.4033 22.8618 31.468 22.8618 31.5477C22.8618 31.6275 22.9265 31.6922 23.0062 31.6922Z" fill="white"/>
<path d="M28.0819 28.8279C28.1617 28.8279 28.2264 28.7633 28.2264 28.6835C28.2264 28.6037 28.1617 28.5391 28.0819 28.5391C28.0022 28.5391 27.9375 28.6037 27.9375 28.6835C27.9375 28.7633 28.0022 28.8279 28.0819 28.8279Z" fill="white"/>
<path d="M31.9296 30.5857C32.0094 30.5857 32.074 30.5211 32.074 30.4413C32.074 30.3615 32.0094 30.2969 31.9296 30.2969C31.8498 30.2969 31.7852 30.3615 31.7852 30.4413C31.7852 30.5211 31.8498 30.5857 31.9296 30.5857Z" fill="white"/>
<path d="M33.2411 31.4246C33.3209 31.4246 33.3855 31.3599 33.3855 31.2802C33.3855 31.2004 33.3209 31.1357 33.2411 31.1357C33.1613 31.1357 33.0967 31.2004 33.0967 31.2802C33.0967 31.3599 33.1613 31.4246 33.2411 31.4246Z" fill="white"/>
<path d="M33.4564 29.1365C33.5362 29.1365 33.6009 29.0719 33.6009 28.9921C33.6009 28.9123 33.5362 28.8477 33.4564 28.8477C33.3767 28.8477 33.312 28.9123 33.312 28.9921C33.312 29.0719 33.3767 29.1365 33.4564 29.1365Z" fill="white"/>
<path d="M14.3246 25.8963C14.4044 25.8963 14.469 25.8316 14.469 25.7519C14.469 25.6721 14.4044 25.6074 14.3246 25.6074C14.2448 25.6074 14.1802 25.6721 14.1802 25.7519C14.1802 25.8316 14.2448 25.8963 14.3246 25.8963Z" fill="white"/>
<path d="M14.3794 29.2617C14.4859 29.2617 14.5722 29.1753 14.5722 29.0688C14.5722 28.9623 14.4859 28.876 14.3794 28.876C14.2729 28.876 14.1865 28.9623 14.1865 29.0688C14.1865 29.1753 14.2729 29.2617 14.3794 29.2617Z" fill="white"/>
<path d="M15.5366 31.7051C15.6431 31.7051 15.7295 31.6187 15.7295 31.5122C15.7295 31.4057 15.6431 31.3193 15.5366 31.3193C15.4301 31.3193 15.3438 31.4057 15.3438 31.5122C15.3438 31.6187 15.4301 31.7051 15.5366 31.7051Z" fill="white"/>
<path d="M29.3965 29.1592C29.503 29.1592 29.5893 29.0728 29.5893 28.9663C29.5893 28.8598 29.503 28.7734 29.3965 28.7734C29.29 28.7734 29.2036 28.8598 29.2036 28.9663C29.2036 29.0728 29.29 29.1592 29.3965 29.1592Z" fill="white"/>
<path d="M34.3852 28.8769C34.4918 28.8769 34.5781 28.7906 34.5781 28.6841C34.5781 28.5776 34.4918 28.4912 34.3852 28.4912C34.2787 28.4912 34.1924 28.5776 34.1924 28.6841C34.1924 28.7906 34.2787 28.8769 34.3852 28.8769Z" fill="white"/>
<path d="M31.9165 27.8213C32.023 27.8213 32.1094 27.7349 32.1094 27.6284C32.1094 27.5219 32.023 27.4355 31.9165 27.4355C31.81 27.4355 31.7236 27.5219 31.7236 27.6284C31.7236 27.7349 31.81 27.8213 31.9165 27.8213Z" fill="white"/>
<path d="M29.3965 27.9248C29.503 27.9248 29.5893 27.8384 29.5893 27.7319C29.5893 27.6254 29.503 27.5391 29.3965 27.5391C29.29 27.5391 29.2036 27.6254 29.2036 27.7319C29.2036 27.8384 29.29 27.9248 29.3965 27.9248Z" fill="white"/>
<path d="M24.1986 8.05443L24.6781 8.00858L24.1994 7.98158C24.1844 7.88901 24.1103 7.81658 24.0168 7.80458L23.971 7.32715L23.9436 7.80843C23.857 7.82772 23.7906 7.90015 23.7798 7.99015L23.2896 8.03472L23.7833 8.06129C23.8013 8.14401 23.8681 8.20872 23.9521 8.22415L23.9967 8.71615L24.0228 8.22501C24.1116 8.21001 24.1819 8.14186 24.1986 8.05443Z" fill="white"/>
<path d="M16.1043 13.3953L16.5839 13.3494L16.1052 13.3224C16.0906 13.2298 16.016 13.1574 15.9226 13.1454L15.8768 12.668L15.8498 13.1493C15.7628 13.1685 15.6963 13.241 15.6856 13.331L15.1953 13.3755L15.689 13.4021C15.707 13.4848 15.7739 13.5495 15.8579 13.565L15.9025 14.057L15.929 13.5658C16.0178 13.5513 16.088 13.4827 16.1043 13.3953Z" fill="white"/>
<path d="M34.0336 27.5115L34.5132 27.4656L34.0344 27.4386C34.0199 27.346 33.9453 27.2736 33.8519 27.2616L33.806 26.7842L33.779 27.2655C33.6924 27.2848 33.626 27.3572 33.6153 27.4472L33.125 27.4918L33.6187 27.5183C33.6367 27.601 33.7036 27.6658 33.7876 27.6812L33.8322 28.1732L33.8587 27.682C33.9466 27.6675 34.0169 27.5993 34.0336 27.5115Z" fill="white"/>
<path d="M14.4842 34.8919L14.9638 34.846L14.4851 34.819C14.4701 34.7265 14.3959 34.654 14.3025 34.642L14.2566 34.165L14.2296 34.6459C14.1426 34.6652 14.0762 34.7376 14.0655 34.8276L13.5752 34.8722L14.0689 34.8988C14.0869 34.9815 14.1538 35.0466 14.2378 35.0616L14.2824 35.5536L14.3089 35.0625C14.3972 35.0479 14.4679 34.9793 14.4842 34.8919Z" fill="white"/>
<path d="M32.5101 31.2917L32.9897 31.2459L32.511 31.2189C32.4964 31.1263 32.4219 31.0539 32.3284 31.0419L32.2826 30.5645L32.2556 31.0453C32.169 31.0646 32.1026 31.137 32.0919 31.227L31.6016 31.2716L32.0953 31.2982C32.1133 31.3809 32.1801 31.4456 32.2641 31.461L32.3087 31.953L32.3353 31.4619C32.4231 31.4477 32.4939 31.3792 32.5101 31.2917Z" fill="white"/>
<path d="M24.5657 17.9541C22.5655 18.7315 20.6146 19.4254 18.9684 19.9405C15.6234 20.988 6.47105 23.8234 0.942383 27.3977L1.40525 27.5777C4.77388 25.6748 6.96349 25.077 9.06825 24.4148C11.3569 23.6948 18.7554 21.9634 22.1056 21.0205C23.2375 20.7021 24.5631 20.2851 25.9671 19.7777C25.6405 19.3221 25.296 18.8652 24.9334 18.4092C24.8121 18.2554 24.6891 18.1037 24.5657 17.9541ZM27.0094 21.3222C26.5251 21.6492 26.1193 21.9102 25.8351 22.0748C24.1894 23.0262 16.1659 28.5034 14.3406 29.7634C12.5153 31.0234 7.44907 35.8062 5.95762 37.1948L5.90619 37.7601C10.7148 33.4401 12.2234 32.3747 14.1349 30.9205C16.5007 29.1205 21.3946 25.7905 23.0579 24.7234C24.648 23.7034 26.082 22.7652 27.369 21.9068C27.348 21.8717 27.327 21.8365 27.306 21.801C27.2091 21.642 27.1101 21.4825 27.0094 21.3222ZM34.5263 13.3834C32.1837 14.7565 28.4915 16.4138 24.9094 17.82C24.9951 17.925 25.0804 18.0308 25.1653 18.1375C25.5655 18.6415 25.9431 19.149 26.2984 19.6568C29.1142 18.6197 32.2038 17.2277 34.6553 15.543C33.4874 16.6495 29.6263 19.5351 27.2722 21.1435C27.3934 21.3411 27.5109 21.5387 27.6244 21.7354C31.1911 19.3487 33.5911 17.592 34.9896 16.4172C36.9182 14.7972 41.3154 11.1715 42.9869 6.31152C40.055 10.0405 36.5886 12.1744 34.5263 13.3834Z" fill="#FC3D21"/>
<path d="M18.273 26.3349C17.8937 25.8575 17.3692 25.2181 16.9753 24.7222C16.4486 24.0592 15.9613 23.3894 15.5147 22.7204C15.369 22.7568 15.2237 22.7932 15.0784 22.8296C15.6176 23.6709 16.2163 24.5109 16.8686 25.3321C17.3452 25.9321 17.7785 26.4151 18.0005 26.7155C18.0455 26.7764 18.1346 26.9109 18.255 27.0901C18.3939 26.9958 18.534 26.9006 18.6755 26.8046C18.5388 26.6559 18.4038 26.4995 18.273 26.3349ZM21.0417 28.8481C20.7301 28.5532 19.9745 28.0608 19.1881 27.3219C19.0145 27.4411 18.8392 27.5619 18.6635 27.6836C19.1713 28.3994 19.8631 29.2784 20.4048 29.5346C21.2208 29.9212 21.4407 29.2261 21.0417 28.8481ZM25.1659 18.1381C20.6692 12.4784 15.1761 9.36907 12.8078 11.2509C10.9683 12.7124 11.7235 16.9835 14.259 21.4702C14.3901 21.4252 14.52 21.3811 14.6485 21.3374C12.0895 16.9659 11.3892 12.9035 13.1241 11.5248C15.3043 9.79249 20.5685 12.9138 24.9349 18.4094C25.8387 19.5468 26.6333 20.6885 27.3062 21.8015C29.8828 26.0658 30.6735 29.9221 28.8932 31.4962C28.3485 31.9779 26.6839 32.1669 24.5033 31.1855C24.4729 31.2236 24.5217 31.3269 24.5599 31.3522C26.4422 32.1091 28.2452 32.3975 29.1555 31.6745C31.343 29.9362 29.6625 23.7978 25.1659 18.1381Z" fill="white"/>
<path d="M5.88037 18.8086H8.76042L11.1776 22.91C11.1776 22.91 11.1776 19.94 11.1776 19.7086C11.1776 19.3486 10.7212 18.8793 10.5605 18.8086C10.7533 18.8086 12.4376 18.8086 12.5534 18.8086C12.4312 18.8407 12.0391 19.3165 12.0391 19.7086C12.0391 19.9015 12.0391 24.2086 12.0391 24.4143C12.0391 24.7036 12.4569 25.1022 12.6562 25.2565H9.87902L7.42326 21.1357C7.42326 21.1357 7.42326 24.2086 7.42326 24.3757C7.42326 24.6972 7.73826 25.0057 8.06613 25.2693H5.94466C6.24681 25.1407 6.5361 24.7357 6.56181 24.4143C6.58753 24.0929 6.56181 19.9465 6.56181 19.7665C6.56181 19.3743 6.18252 19.0529 5.88037 18.8086Z" fill="white"/>
<path d="M32.2251 25.2565H36.0566C35.8445 25.205 35.6066 24.9543 35.4781 24.62C35.3495 24.2857 33.318 18.8086 33.318 18.8086H31.8613C31.4481 19.106 31.0054 19.4197 30.5327 19.7502C30.5314 19.7622 30.5301 19.7742 30.528 19.7857C30.4645 20.1715 29.3245 24.3003 29.2551 24.5043C29.1587 24.7872 28.6636 25.1022 28.4644 25.2693H30.528C30.3222 25.0379 30.1551 24.8129 30.1937 24.5557C30.2322 24.2986 30.348 23.7843 30.348 23.7843H32.4823C32.5787 24.0415 32.6507 24.2725 32.688 24.4915C32.733 24.755 32.463 25.0507 32.2251 25.2565ZM30.5408 22.9615L31.2608 20.6086L32.2123 22.9615H30.5408ZM30.2164 19.0435C30.3222 18.9655 30.4285 18.887 30.5344 18.8086H29.9751C30.0308 18.86 30.123 18.941 30.2164 19.0435Z" fill="white"/>
<path d="M15.5623 24.5557C15.6009 24.2986 15.7166 23.7843 15.7166 23.7843H17.8509C17.9474 24.0415 18.0194 24.2725 18.0567 24.4915C18.1017 24.755 17.8317 25.0507 17.5938 25.2565H20.9671C21.0374 25.2093 21.1073 25.1622 21.1771 25.1155C21.0464 24.9997 20.926 24.8262 20.8467 24.62C20.7181 24.2857 18.6867 18.8086 18.6867 18.8086H15.3438C15.5045 18.9565 15.9673 19.355 15.8966 19.7857C15.8336 20.1715 14.6932 24.3003 14.6237 24.5043C14.5273 24.7872 14.0323 25.1022 13.833 25.2693H15.8966C15.6909 25.0379 15.5238 24.8129 15.5623 24.5557ZM16.6295 20.6086L17.5809 22.9615H15.9095L16.6295 20.6086Z" fill="white"/>
<path d="M27.2147 22.0098C26.5855 22.4289 25.9217 22.8665 25.2222 23.3233C25.5359 23.4755 25.7858 23.6666 25.8098 23.9135C25.8544 24.3772 24.9227 24.6013 24.0805 24.5049C23.9121 24.4856 23.7466 24.4415 23.5889 24.3823C23.4141 24.495 23.2375 24.6086 23.0583 24.7235C22.8762 24.8405 22.655 24.9845 22.4026 25.1508V25.8163C22.5697 25.4885 22.9353 25.1949 23.219 25.1799C23.3412 25.1735 23.7655 25.5656 25.5141 25.4692C26.3627 25.4225 28.002 24.5178 27.9763 23.4763C27.9608 22.8609 27.6394 22.3809 27.2147 22.0098ZM22.4022 23.6178V24.2958C22.5569 24.1925 22.7095 24.0909 22.859 23.9919C22.6238 23.8282 22.457 23.6752 22.4022 23.6178ZM26.6168 21.5842C26.454 21.4878 26.289 21.4033 26.1308 21.3288C25.3079 20.943 24.4465 20.8723 24.2665 20.3516C24.1396 19.9843 24.4979 19.6445 25.3722 19.6573C26.2465 19.6702 27.0565 20.1909 27.2751 20.3773V18.7188C27.2108 18.783 26.9288 19.1066 26.6708 19.053C26.1758 18.9502 25.3337 18.816 24.3694 18.8216C23.2636 18.828 22.3122 19.6826 22.28 20.763C22.235 22.2738 23.4436 22.6852 24.1251 22.923C24.1954 22.9475 24.2755 22.9736 24.3625 23.0015C25.0161 22.5763 25.5329 22.2489 25.8355 22.0745C26.0387 21.9575 26.3048 21.7895 26.6168 21.5842Z" fill="white"/>
</svg>
